<svg xmlns="http://www.w3.org/2000/svg" class="icon icon-logo" version="1.1" id="Layer_1" x="0" y="0" xml:space="preserve" viewBox="117.37 85.77 976.32 101.12"><path fill="#5B6670" d="M180.37 161.7h-.23c-5.27 6.09-13.35 9.37-26.35 9.37-18.97 0-36.42-10.42-36.42-34.19 0-23.77 17.45-34.19 36.42-34.19 11.94 0 20.37 2.93 25.41 9.02h.23V85.77h29.27v82.73h-28.34v-6.8zm-17.09-39.34c-10.54 0-15.92 6.32-15.92 14.52 0 8.43 4.68 14.52 16.04 14.52 11.24 0 16.04-5.39 16.04-14.52 0-9.02-4.81-14.52-16.16-14.52zM310.68 149.29c-2.22 6.67-7.14 12.18-14.64 15.92-7.49 3.75-17.56 5.86-31.03 5.86-30.8 0-48.36-11.24-48.36-34.66 0-22.13 16.86-34.54 45.67-34.54 28.34 0 49.18 9.48 48.71 41.45h-64.4c0 4.57 4.8 11.59 17.68 11.59 7.61 0 12.06-1.64 15.22-5.62h31.15zm-29.15-20.73c-.58-6.91-7.26-11.24-17.33-11.24-10.19 0-16.04 3.16-17.57 11.24h34.9zM319.45 104.44h28.34v12.3h.23c7.61-9.95 17.21-14.05 27.28-14.05 3.16 0 6.44.23 9.6.7v26.23c-5.15-1.29-9.48-2.34-14.64-2.34-10.42 0-21.55 3.4-21.55 17.21v24h-29.27v-64.05zM390.63 104.44h28.34v8.78h.23c4.57-5.97 11.71-10.54 23.89-10.54 12.65 0 17.8 4.33 21.19 10.66 3.98-5.86 11.71-10.66 23.54-10.66 14.05 0 25.29 6.09 25.29 21.66v44.15h-29.27v-36.18c0-6.44-2.69-8.55-7.85-8.55-6.09 0-9.95 2.93-9.95 10.77v33.96H437.7v-36.18c0-6.44-2.69-8.55-7.85-8.55-6.09 0-9.95 2.93-9.95 10.77v33.96h-29.27v-64.05zM525.03 123.88c1.76-8.78 5.39-14.17 12.65-17.56 7.14-3.28 17.8-4.45 33.26-4.45 29.86 0 41.69 6.68 41.69 25.76v30.91c0 4.92 1.29 7.84 2.7 9.95h-29.98c-.58-1.87-.94-3.98-1.05-6.32-6.56 6.09-16.51 8.9-32.08 8.9-19.67 0-32.09-5.27-32.09-21.67 0-11.71 8.31-19.2 29.98-20.14l24.71-1.17c5.86-.35 7.85-1.76 7.85-5.27 0-4.22-5.27-6.21-13.58-6.21-6.67 0-13.35 1.05-14.75 7.26h-29.31zm58.31 15.46c-4.92 1.05-13.23 1.76-23.65 2.69-5.39.47-7.96 2.22-7.96 6.32 0 4.45 3.63 7.26 10.89 7.26 9.84 0 20.73-2.46 20.73-13.47v-2.8zM623.84 85.8h29.28v82.69h-29.28V85.8zM708.49 101.86c33.02 0 47.43 11.01 47.43 34.54 0 23.65-14.4 34.66-47.43 34.66s-47.43-11.01-47.43-34.66c.01-23.53 14.41-34.54 47.43-34.54zm0 50.24c11.82 0 16.74-5.39 16.74-15.69 0-10.07-4.92-15.57-16.74-15.57-11.71 0-16.75 5.5-16.75 15.57 0 10.3 5.04 15.69 16.75 15.69zM824.52 157.6c-5.86 5.15-14.99 6.91-25.41 6.91-25.18 0-38.76-10.77-38.76-30.91s16.98-30.91 38.76-30.91c11.71 0 20.49 3.28 26.34 9.02v-7.26h28.34v56.48c0 20.49-15.34 25.96-44.61 25.96-31.97 0-42.96-8.39-46.37-18.39h32.32s.9 1.61 3.63 2.5c2.24.73 5.27 1.64 9.72 1.64 11.94 0 16.04-3.75 16.04-12.53v-2.51zm-16.87-35.95c-12.06 0-16.63 5.85-16.63 12.53 0 6.91 4.57 12.76 16.63 12.76 12.41 0 16.86-5.85 16.86-12.76.01-6.67-4.44-12.53-16.86-12.53zM865.26 104.44h29.27v64.05h-29.27v-64.05zm0-18.52h29.27v12.2h-29.27v-12.2zM964.54 130.2c-.35-3.98-2.22-6.44-5.5-8.08-2.69-1.41-6.79-1.99-10.54-1.99-13.11 0-17.68 7.26-17.68 15.81 0 9.84 5.85 16.16 17.45 16.16 8.2 0 14.29-2.34 16.28-10.66h30.68c-3.05 26.58-26.93 29.63-47.08 29.63-26.93 0-48.01-8.2-48.01-34.78 0-26.23 21.07-34.43 48.01-34.43 27.52 0 43.91 7.03 47.08 28.34h-30.69zM1003.4 123.88c1.76-8.78 5.39-14.17 12.65-17.56 7.14-3.28 17.8-4.45 33.26-4.45 29.86 0 41.69 6.68 41.69 25.76v30.91c0 4.92 1.29 7.84 2.69 9.95h-29.97c-.59-1.87-.94-3.98-1.05-6.32-6.56 6.09-16.51 8.9-32.09 8.9-19.67 0-32.08-5.27-32.08-21.67 0-11.71 8.31-19.2 29.98-20.14l24.71-1.17c5.85-.35 7.84-1.76 7.84-5.27 0-4.22-5.27-6.21-13.58-6.21-6.67 0-13.35 1.05-14.75 7.26h-29.3zm58.31 15.46c-4.92 1.05-13.23 1.76-23.65 2.69-5.39.47-7.97 2.22-7.97 6.32 0 4.45 3.63 7.26 10.89 7.26 9.84 0 20.73-2.46 20.73-13.47v-2.8z"></path></svg>