<svg xmlns="http://www.w3.org/2000/svg" width="205.8" height="59.7" viewBox="0 0 205.8 59.7">
<path d="M165.5,54.2c-1.6,0.8-3.2,1.2-4.9,1.2c-4.1,0-5.8-2.6-5.8-6.3V20.9h9l0.7-2.3h-9.7V7.8h-0.5c-2.5,5.4-7.2,11.6-12.9,13 c-0.1,0-0.1,0.1,0,0.1h6.2v29.8c0,5.9,3.4,8.9,8.5,8.9C162.2,59.6,165.1,55.2,165.5,54.2C165.7,54.2,165.6,54.2,165.5,54.2 L165.5,54.2z"></path>
<path d="M74.3,52.8c0.3,3,0.9,4.9,1.8,6.4L87,57.1c0.1,0,0.1-0.1,0-0.1c-1.7-0.1-5.9-0.8-5.9-7V17.9h-0.5l-12.5,2.9 c0,0-0.1,0.1,0,0.1c3.7,0.4,5.8,2,5.8,4.9v20.7c0,2,0.1,3.7,0.2,5.2c-1.9,2.4-4.9,4.1-8.5,4.1c-5.7,0-8-3.8-8-9.6V17.9h-0.5 l-12.5,2.9c0,0-0.1,0.1,0,0.1c3.7,0.4,5.8,2,5.8,4.9v21c0,7.7,3.7,12.7,11.6,12.7C67.6,59.6,72.2,56.1,74.3,52.8z"></path>
<path d="M36.5,4.4C33,1.8,28.2,0,23.2,0H0c0,0.1,0,0,0,0.1c1.8,0.3,5.5,1.2,5.5,5.8v46.9c0,4.9-3.8,5.5-5.5,5.8c0,0.1,0,0.1,0,0.1 h19.9c0-0.1,0-0.1,0-0.1c-1.6-0.3-6.3-1-6.3-5.8V2.3h7.6c4.8,0,12.9,2.2,12.9,15c0,9.5-5.5,15.9-16.4,16.2c0,0-0.1,0-0.1,0.1 c0,0,0,0.1,0.1,0.1c4.7,0.3,9.1,0.3,13.5-1c7-2.2,11.5-8.4,11.5-15.8C42.6,11.6,40.5,7.4,36.5,4.4z"></path>
<path d="M134.8,52.8V17.9h-0.5l-12.5,2.9v0.1c4,0.5,5.8,3.4,5.8,6.5v25.3c0,4.8-3.8,5.5-5.5,5.8c0,0.1,0,0.1,0,0.1h18.1 c0-0.1,0-0.1,0-0.1C138.6,58.3,134.8,57.6,134.8,52.8L134.8,52.8z"></path>
<path d="M130.8,12.2c2.4,0,4.4-2,4.4-4.4c0-2.3-2-4.4-4.4-4.4s-4.4,2-4.4,4.4C126.4,10.1,128.4,12.2,130.8,12.2z"></path>
<path d="M186.7,17.9c-10.1,0-19.1,8.6-19.1,21.1s9,20.7,19.1,20.7s19.1-8.6,19.1-21.1S196.7,17.9,186.7,17.9z M187.2,58.1 c-7.2,0-11.5-10.4-11.5-21s3.7-17.8,10.5-17.8s11.5,9.2,11.5,21C197.7,50.6,193.9,58.1,187.2,58.1z"></path>
<path d="M94.8,27.5v25.3c0,4.8-3.8,5.5-5.5,5.8c0,0.1,0,0.1,0,0.1h18.1c0-0.1,0-0.1,0-0.1c-1.6-0.3-5.5-1-5.5-5.9V17.9h-0.5 l-12.5,2.9v0.1C93.1,21.4,94.8,24.4,94.8,27.5L94.8,27.5z"></path>
<path d="M116.4,24.4c1.9-1.2,2.6-4.4,2.6-4.4s-2.1-2.1-6.3-2.1c-3.3,0-6.1,1.5-7.9,4.8c-1,1.7-1.3,3.6-1.3,3.6c1.4-2.7,4-3,5.3-2.8 c1.8,0.2,2.4,0.9,3.7,1.3C113.7,25.2,115.2,25.1,116.4,24.4z"></path>
</svg>