<svg xmlns="http://www.w3.org/2000/svg" width="84" height="31" viewBox="0 0 84 31" fill="none">
    <g id="The Ordinary Logo">
        <path id="Union" fill-rule="evenodd" clip-rule="evenodd" d="M11.2292 7.93355H12.1854V4.53949C12.1854 4.20532 12.1552 3.89128 12.0928 3.59939C12.0304 3.30749 11.9318 3.05586 11.7929 2.84448C11.656 2.63512 11.4708 2.46803 11.2393 2.34524C11.0078 2.22244 10.7259 2.16003 10.3917 2.16003C9.93679 2.16003 9.51606 2.27679 9.13156 2.50829C8.74907 2.74181 8.44512 3.06391 8.21965 3.47659V0H7.26343V7.93355H8.21965V4.51131C8.28407 4.2939 8.38068 4.0946 8.50751 3.91343C8.63433 3.73225 8.77928 3.57724 8.94234 3.44639C9.1054 3.31554 9.28054 3.21287 9.46977 3.13638C9.65698 3.05988 9.84622 3.02163 10.0334 3.02163C10.426 3.02163 10.7219 3.16456 10.9252 3.45042C11.1265 3.73829 11.2292 4.17311 11.2292 4.76093V7.93355ZM3.64165 1.08715H6.30295V0.217499H0V1.08715H2.6633V7.93363H3.64165V1.08715ZM16.183 8.04228C15.7562 8.04228 15.3657 7.96377 15.0094 7.80877C14.6531 7.65376 14.3491 7.44239 14.0955 7.17264C13.8418 6.9049 13.6445 6.59085 13.5036 6.23252C13.3627 5.8742 13.2922 5.49574 13.2922 5.09715C13.2922 4.69856 13.3627 4.32211 13.5036 3.96781C13.6445 3.61351 13.8438 3.30148 14.1015 3.03374C14.3592 2.766 14.6631 2.55262 15.0194 2.39761C15.3738 2.2426 15.7663 2.16409 16.1931 2.16409C16.6199 2.16409 17.0084 2.24462 17.3607 2.40365C17.7109 2.56268 18.0109 2.77607 18.2565 3.03978C18.5021 3.3035 18.6933 3.6115 18.8282 3.96379C18.9611 4.31406 19.0295 4.67843 19.0295 5.05487C19.0295 5.1354 19.0275 5.20787 19.0235 5.27229C19.0194 5.33671 19.0154 5.38905 19.0074 5.42528H14.3008C14.3229 5.70711 14.3873 5.96479 14.4961 6.19629C14.6048 6.42779 14.7457 6.62709 14.9208 6.79418C15.0939 6.96126 15.2912 7.09211 15.5127 7.18471C15.7341 7.27933 15.9676 7.32563 16.2132 7.32563C16.3863 7.32563 16.5575 7.30147 16.7245 7.25517C16.8916 7.20887 17.0466 7.14445 17.1916 7.06594C17.3365 6.98542 17.4633 6.88879 17.5761 6.77203C17.6888 6.65527 17.7734 6.52644 17.8317 6.37948L18.6571 6.60696C18.5625 6.81833 18.4336 7.00957 18.2726 7.1827C18.1095 7.35582 17.9203 7.5068 17.7069 7.63363C17.4935 7.76045 17.256 7.86111 16.9943 7.93156C16.7386 8.00605 16.4669 8.04228 16.183 8.04228ZM18.1297 4.71668C18.1075 4.44894 18.0411 4.20133 17.9284 3.97184C17.8156 3.74436 17.6747 3.54909 17.5056 3.39006C17.3345 3.23102 17.1372 3.10621 16.9138 3.01562C16.6883 2.92504 16.4508 2.88075 16.1971 2.88075C15.9435 2.88075 15.7039 2.92504 15.4805 3.01562C15.255 3.10621 15.0577 3.23304 14.8886 3.3961C14.7175 3.55916 14.5806 3.75241 14.4759 3.97788C14.3712 4.20334 14.3068 4.44894 14.2847 4.71668H18.1297ZM4.68242 24.7932C5.5561 25.214 6.52842 25.4233 7.6034 25.4233C8.6341 25.4233 9.59031 25.22 10.47 24.8113C11.3497 24.4067 12.1087 23.8612 12.7408 23.1807C13.3749 22.5003 13.8701 21.7152 14.2285 20.8275C14.5868 19.9397 14.7659 19.0076 14.7659 18.0293C14.7659 17.1073 14.5948 16.1974 14.2506 15.3036C13.9064 14.4078 13.4252 13.6106 12.8052 12.908C12.1852 12.2054 11.4383 11.6378 10.5646 11.2049C9.69096 10.7721 8.7247 10.5547 7.6638 10.5547C6.63311 10.5547 5.67688 10.758 4.79515 11.1647C3.91544 11.5693 3.1545 12.1169 2.51434 12.8053C1.87418 13.4958 1.37092 14.287 1.00655 15.1808C0.642181 16.0766 0.458984 17.0127 0.458984 17.989C0.458984 18.9251 0.632111 19.8411 0.976347 20.7349C1.32058 21.6307 1.80573 22.4258 2.4318 23.1204C3.05787 23.8149 3.80874 24.3745 4.68242 24.7932ZM3.63763 19.829C3.44639 19.2371 3.34976 18.6252 3.34976 17.991C3.34976 17.3851 3.44236 16.7892 3.62555 16.2054C3.81076 15.6216 4.08253 15.0982 4.44086 14.6372C4.79919 14.1762 5.24609 13.8038 5.78358 13.522C6.32107 13.2402 6.93304 13.0992 7.62151 13.0992C8.2818 13.0992 8.87767 13.2321 9.40711 13.5019C9.93655 13.7716 10.3855 14.132 10.7498 14.5869C11.1142 15.0399 11.396 15.5633 11.5973 16.1551C11.7966 16.747 11.8973 17.3609 11.8973 17.993C11.8973 18.599 11.8027 19.1949 11.6175 19.7786C11.4323 20.3645 11.1565 20.8919 10.7921 21.3589C10.4277 21.826 9.97884 22.2024 9.4494 22.4842C8.91996 22.7661 8.30999 22.907 7.62151 22.907C6.94713 22.907 6.34523 22.7701 5.81579 22.4943C5.28433 22.2185 4.83743 21.8541 4.47307 21.3992C4.11071 20.9442 3.83089 20.4208 3.63763 19.829ZM22.6127 16.8957C21.7732 16.9098 21.0223 17.0709 20.3621 17.3809C19.7018 17.6909 19.2267 18.1559 18.9388 18.7739V25.3185H16.1729V14.4982H18.7134V16.8112C18.9046 16.4388 19.1321 16.1066 19.3938 15.8107C19.6555 15.5148 19.9373 15.2571 20.2413 15.0356C20.5432 14.8162 20.8512 14.6471 21.1592 14.5304C21.4692 14.4136 21.7692 14.3552 22.0591 14.3552H22.3993C22.4738 14.3552 22.5462 14.3613 22.6167 14.3754V16.8957H22.6127ZM25.5237 25.0952C26.1579 25.3831 26.8443 25.528 27.5892 25.528C28.332 25.528 29.0446 25.3509 29.723 25.0046C30.4055 24.6543 30.945 24.135 31.3456 23.4465L31.408 24.1269C31.4502 24.5255 31.6274 24.8496 31.9455 25.0972C32.2615 25.3468 32.6682 25.4696 33.1634 25.4696C33.4673 25.4696 33.8599 25.4213 34.341 25.3247V22.9714C34.1075 22.9573 33.9424 22.8869 33.8458 22.7641C33.7492 22.6393 33.7009 22.4319 33.7009 22.144V10.2508H30.9349V16.4047C30.5766 15.7847 30.0773 15.2835 29.4372 14.8969C28.797 14.5125 28.0763 14.3192 27.2791 14.3192C26.5766 14.3192 25.9304 14.4621 25.3385 14.752C24.7467 15.0419 24.2374 15.4405 23.8106 15.9498C23.3838 16.4591 23.0497 17.0509 22.8101 17.7253C22.5685 18.3997 22.4478 19.1284 22.4478 19.9135C22.4478 20.6986 22.5746 21.4314 22.8302 22.1118C23.0839 22.7922 23.4382 23.3881 23.8932 23.8974C24.3461 24.4067 24.8896 24.8073 25.5237 25.0952ZM29.1171 23.0378C28.8413 23.1284 28.5736 23.1727 28.3119 23.1727C27.871 23.1727 27.4684 23.0902 27.106 22.9211C26.7417 22.756 26.4276 22.5305 26.1659 22.2407C25.9062 21.9508 25.6989 21.6146 25.5479 21.2281C25.3949 20.8436 25.3204 20.4249 25.3204 19.9699C25.3204 19.5451 25.3869 19.1305 25.5258 18.7319C25.6626 18.3333 25.8559 17.979 26.1035 17.669C26.3511 17.3589 26.6511 17.1154 27.0013 16.9362C27.3516 16.759 27.7341 16.6685 28.1468 16.6685C28.4206 16.6685 28.7004 16.7228 28.9822 16.8335C29.2641 16.9443 29.5318 17.0932 29.7875 17.2784C30.0411 17.4636 30.2686 17.6851 30.4679 17.9387C30.6671 18.1924 30.8222 18.4722 30.9329 18.7741V21.3549C30.8363 21.6166 30.6953 21.8582 30.5101 22.0776C30.3249 22.297 30.1156 22.4903 29.8801 22.6554C29.6465 22.8204 29.3929 22.9493 29.1171 23.0378ZM35.9092 12.9941V10.2483H38.6751V12.9941H35.9092ZM35.9092 25.3202V14.4999H38.6751V25.3202H35.9092ZM47.9476 25.3204H50.7096V18.5705C50.7096 18.0491 50.6653 17.5318 50.5747 17.0225C50.4861 16.5132 50.3251 16.0582 50.0895 15.6596C49.856 15.261 49.5259 14.9389 49.0991 14.6893C48.6723 14.4397 48.1228 14.3169 47.4484 14.3169C46.4982 14.3169 45.6446 14.5102 44.8877 14.8947C44.1328 15.2791 43.5531 15.8166 43.1545 16.5051V14.5021H40.6562V25.3224H43.4222V19.0033C43.5188 18.6732 43.6698 18.3712 43.8772 18.0954C44.0845 17.8197 44.314 17.5821 44.5697 17.3828C44.8253 17.1835 45.0971 17.0285 45.385 16.9178C45.6749 16.8071 45.9567 16.7527 46.2325 16.7527C46.77 16.7527 47.1887 16.952 47.4927 17.3506C47.7966 17.7512 47.9476 18.3833 47.9476 19.251V25.3204ZM55.5652 25.5277C55.0418 25.5277 54.5546 25.4412 54.0997 25.2701C53.6447 25.0989 53.2522 24.8574 52.922 24.5474C52.5919 24.2373 52.3322 23.877 52.147 23.4623C51.9618 23.0496 51.8672 22.5947 51.8672 22.0995C51.8672 21.5901 51.9799 21.1191 52.2074 20.6843C52.4349 20.2494 52.7509 19.8831 53.1576 19.5791C53.5642 19.2771 54.0494 19.0396 54.613 18.8664C55.1767 18.6953 55.7967 18.6088 56.4711 18.6088C56.9522 18.6088 57.4233 18.649 57.8863 18.7316C58.3473 18.8141 58.7559 18.9309 59.1143 19.0818V18.4618C59.1143 17.7472 58.9109 17.1956 58.5063 16.8091C58.0997 16.4246 57.4978 16.2313 56.6986 16.2313C56.1208 16.2313 55.5551 16.334 55.0056 16.5413C54.454 16.7487 53.8903 17.0507 53.3126 17.4513L52.4671 15.6959C53.8581 14.7739 55.3579 14.3129 56.9683 14.3129C58.5244 14.3129 59.7323 14.6953 60.5919 15.4583C61.4515 16.2213 61.8823 17.3264 61.8823 18.7718V22.1377C61.8823 22.4256 61.9326 22.6329 62.0353 22.7577C62.1399 22.8805 62.307 22.951 62.5405 22.9651V25.3184C62.0735 25.415 61.6669 25.4633 61.3226 25.4633C60.7992 25.4633 60.3966 25.3466 60.1148 25.113C59.8329 24.8795 59.6578 24.5695 59.5894 24.183L59.527 23.5831C59.0438 24.2172 58.46 24.6983 57.7715 25.0285C57.0871 25.3627 56.3503 25.5277 55.5652 25.5277ZM56.3503 23.5026C56.8174 23.5026 57.2622 23.42 57.683 23.255C58.1037 23.0899 58.4298 22.8705 58.6633 22.5947C58.9673 22.3612 59.1183 22.0995 59.1183 21.8096V20.5715C58.7882 20.4487 58.4298 20.3481 58.0453 20.2716C57.6588 20.1971 57.2884 20.1588 56.9301 20.1588C56.2154 20.1588 55.6296 20.3199 55.1747 20.644C54.7197 20.9681 54.4943 21.3768 54.4943 21.872C54.4943 22.339 54.6734 22.7295 55.0317 23.0375C55.386 23.3496 55.8269 23.5026 56.3503 23.5026ZM68.1409 17.3809C68.8012 17.0709 69.552 16.9098 70.3915 16.8957H70.3955V14.7766L74.5601 25.3205C74.4232 25.7755 74.2924 26.1519 74.1676 26.4559C74.0428 26.7579 73.92 26.9954 73.7952 27.1685C73.6724 27.3417 73.5335 27.4604 73.3825 27.5309C73.2315 27.5994 73.0664 27.6336 72.8873 27.6336C72.7343 27.6336 72.5491 27.6155 72.3297 27.5812C72.1102 27.547 71.8828 27.4947 71.6492 27.4262V29.8198C71.8968 29.9023 72.1344 29.9607 72.3619 29.9949C72.5893 30.0291 72.8128 30.0473 73.0322 30.0473C73.9683 30.0473 74.7534 29.8057 75.3855 29.3246C76.0196 28.8434 76.4665 28.2234 76.7282 27.4665L81.2697 14.5002H78.6688L76.0659 22.925L73.1349 14.5002H70.3955V14.3754C70.3251 14.3613 70.2526 14.3552 70.1781 14.3552H69.8379C69.548 14.3552 69.2481 14.4136 68.9381 14.5304C68.6301 14.6471 68.322 14.8162 68.0201 15.0356C67.7161 15.2571 67.4343 15.5148 67.1726 15.8107C66.9109 16.1066 66.6834 16.4388 66.4922 16.8112V14.4982H63.9517V25.3185H66.7176V18.7739C67.0055 18.1559 67.4806 17.6909 68.1409 17.3809ZM81.7273 22.3472V25.3205H84.0001V22.3472H81.7273Z" fill="black"/>
    </g>
</svg>
